mtllib connection_fuell_cell-converter.mtl

v  -0.000000 50.000000 800.000000
v  -0.000000 50.000000 800.000000
v  -0.000000 50.000000 800.000000
v  25.000000 43.301270 800.000000
v  25.000000 43.301270 800.000000
v  43.301270 25.000000 800.000000
v  43.301270 25.000000 800.000000
v  50.000000 0.000000 800.000000
v  50.000000 0.000000 800.000000
v  43.301270 -25.000000 800.000000
v  43.301270 -25.000000 800.000000
v  25.000000 -43.301270 800.000000
v  25.000000 -43.301270 800.000000
v  0.000000 -50.000000 800.000000
v  0.000000 -50.000000 800.000000
v  0.000000 -50.000000 800.000000
v  -25.000000 -43.301270 800.000000
v  -25.000000 -43.301270 800.000000
v  -43.301270 -25.000000 800.000000
v  -43.301270 -25.000000 800.000000
v  -50.000000 -0.000000 800.000000
v  -50.000000 -0.000000 800.000000
v  -43.301270 25.000000 800.000000
v  -43.301270 25.000000 800.000000
v  -25.000000 43.301270 800.000000
v  -25.000000 43.301270 800.000000
v  0.000000 50.000000 100.000000
v  0.000000 50.000000 100.000000
v  0.000000 50.000000 100.000000
v  0.000000 50.000000 100.000000
v  25.000000 43.301270 100.000000
v  25.000000 43.301270 100.000000
v  43.301270 25.000000 100.000000
v  43.301270 25.000000 100.000000
v  50.000000 0.000000 100.000000
v  50.000000 0.000000 100.000000
v  43.301270 -25.000000 100.000000
v  43.301270 -25.000000 100.000000
v  25.000000 -43.301270 100.000000
v  25.000000 -43.301270 100.000000
v  0.000000 -50.000000 100.000000
v  0.000000 -50.000000 100.000000
v  0.000000 -50.000000 100.000000
v  0.000000 -50.000000 100.000000
v  -25.000000 -43.301270 100.000000
v  -25.000000 -43.301270 100.000000
v  -43.301270 -25.000000 100.000000
v  -43.301270 -25.000000 100.000000
v  -50.000000 -0.000000 100.000000
v  -50.000000 -0.000000 100.000000
v  -43.301270 25.000000 100.000000
v  -43.301270 25.000000 100.000000
v  -25.000000 43.301270 100.000000
v  -25.000000 43.301270 100.000000
v  0.000000 53.806023 80.865828
v  0.000000 53.806023 80.865828
v  0.000000 53.806023 80.865828
v  0.000000 53.806023 80.865828
v  21.694187 49.231382 78.970950
v  39.091574 36.413520 73.661618
v  48.746396 17.891174 65.989411
v  48.746396 -2.667080 57.473903
v  39.091574 -21.189427 49.801696
v  21.694187 -34.007288 44.492364
v  0.000000 -38.581930 42.597485
v  0.000000 -38.581930 42.597485
v  0.000000 -38.581930 42.597485
v  0.000000 -38.581930 42.597485
v  0.000000 56.698730 75.000000
v  0.000000 56.698730 75.000000
v  0.000000 64.658548 64.630780
v  0.000000 64.658548 64.630780
v  0.000000 64.658548 64.630780
v  0.000000 64.658548 64.630780
v  21.694187 61.158644 61.128126
v  39.091574 51.352130 51.313907
v  48.746396 37.181308 37.131951
v  48.746396 21.452882 21.391167
v  39.091574 7.282060 7.209211
v  21.694187 -2.524453 -2.605007
v  0.000000 -6.024357 -6.107661
v  0.000000 -6.024357 -6.107661
v  0.000000 -6.024357 -6.107661
v  0.000000 -6.024357 -6.107661
v  0.000000 75.000000 56.698730
v  0.000000 75.000000 56.698730
v  0.000000 80.902115 53.791010
v  0.000000 80.902115 53.791010
v  0.000000 80.902115 53.791010
v  0.000000 80.902115 53.791010
v  21.694187 79.010830 49.214881
v  39.091574 73.711566 36.392854
v  48.746396 66.053909 17.864487
v  48.746396 57.554551 -2.700448
v  39.091574 49.896893 -21.228815
v  21.694187 44.597630 -34.050842
v  0.000000 42.706345 -38.626971
v  0.000000 42.706345 -38.626971
v  0.000000 42.706345 -38.626971
v  0.000000 42.706345 -38.626971
v  0.000000 100.000000 50.000000
v  0.000000 100.000000 50.000000
v  0.000000 100.000000 50.000000
v  0.000000 100.000000 50.000000
v  25.000000 100.000000 43.301270
v  25.000000 100.000000 43.301270
v  43.301270 100.000000 25.000000
v  43.301270 100.000000 25.000000
v  50.000000 100.000000 0.000000
v  50.000000 100.000000 0.000000
v  43.301270 100.000000 -25.000000
v  43.301270 100.000000 -25.000000
v  25.000000 100.000000 -43.301270
v  25.000000 100.000000 -43.301270
v  0.000000 100.000000 -50.000000
v  0.000000 100.000000 -50.000000
v  0.000000 100.000000 -50.000000
v  0.000000 100.000000 -50.000000
v  -21.694187 -34.007288 44.492364
v  -39.091574 -21.189427 49.801696
v  -48.746396 -2.667080 57.473903
v  -48.746396 17.891174 65.989411
v  -39.091574 36.413520 73.661618
v  -21.694187 49.231382 78.970950
v  -21.694187 -2.524453 -2.605007
v  -39.091574 7.282060 7.209211
v  -48.746396 21.452882 21.391167
v  -48.746396 37.181308 37.131951
v  -39.091574 51.352130 51.313907
v  -21.694187 61.158644 61.128126
v  -21.694187 44.597630 -34.050842
v  -39.091574 49.896893 -21.228815
v  -48.746396 57.554551 -2.700448
v  -48.746396 66.053909 17.864487
v  -39.091574 73.711566 36.392854
v  -21.694187 79.010830 49.214881
v  -25.000000 100.000000 -43.301270
v  -25.000000 100.000000 -43.301270
v  -43.301270 100.000000 -25.000000
v  -43.301270 100.000000 -25.000000
v  -50.000000 100.000000 -0.000000
v  -50.000000 100.000000 -0.000000
v  -43.301270 100.000000 25.000000
v  -43.301270 100.000000 25.000000
v  -25.000000 100.000000 43.301270
v  -25.000000 100.000000 43.301270
v  -0.000000 500.000000 50.000000
v  -0.000000 500.000000 50.000000
v  -0.000000 500.000000 50.000000
v  -25.000000 500.000000 43.301270
v  -25.000000 500.000000 43.301270
v  -43.301270 500.000000 25.000000
v  -43.301270 500.000000 25.000000
v  -50.000000 500.000000 -0.000000
v  -50.000000 500.000000 -0.000000
v  -43.301270 500.000000 -25.000000
v  -43.301270 500.000000 -25.000000
v  -25.000000 500.000000 -43.301270
v  -25.000000 500.000000 -43.301270
v  0.000000 500.000000 -50.000000
v  0.000000 500.000000 -50.000000
v  0.000000 500.000000 -50.000000
v  25.000000 500.000000 -43.301270
v  25.000000 500.000000 -43.301270
v  43.301270 500.000000 -25.000000
v  43.301270 500.000000 -25.000000
v  50.000000 500.000000 0.000000
v  50.000000 500.000000 0.000000
v  43.301270 500.000000 25.000000
v  43.301270 500.000000 25.000000
v  25.000000 500.000000 43.301270
v  25.000000 500.000000 43.301270

vt  0.772648 1.000000 0.000000
vt  0.772648 1.000000 0.000000
vt  0.772648 1.000000 0.000000
vt  0.686798 1.000000 0.000000
vt  0.686798 1.000000 0.000000
vt  0.600948 1.000000 0.000000
vt  0.600948 1.000000 0.000000
vt  0.515098 1.000000 0.000000
vt  0.515098 1.000000 0.000000
vt  0.429249 1.000000 0.000000
vt  0.429249 1.000000 0.000000
vt  0.343399 1.000000 0.000000
vt  0.343399 1.000000 0.000000
vt  0.257549 1.000000 0.000000
vt  0.257549 1.000000 0.000000
vt  0.257549 1.000000 0.000000
vt  0.171699 1.000000 0.000000
vt  0.171699 1.000000 0.000000
vt  0.085850 1.000000 0.000000
vt  0.085850 1.000000 0.000000
vt  0.000000 1.000000 0.000000
vt  0.000000 1.000000 0.000000
vt  0.944347 1.000000 0.000000
vt  0.944347 1.000000 0.000000
vt  0.858497 1.000000 0.000000
vt  0.858497 1.000000 0.000000
vt  0.772648 0.825601 0.000000
vt  0.772648 0.825601 0.000000
vt  0.772648 0.825601 0.000000
vt  0.772648 0.825601 0.000000
vt  0.686798 0.825601 0.000000
vt  0.686798 0.825601 0.000000
vt  0.600948 0.825601 0.000000
vt  0.600948 0.825601 0.000000
vt  0.515098 0.825601 0.000000
vt  0.515098 0.825601 0.000000
vt  0.429249 0.825601 0.000000
vt  0.429249 0.825601 0.000000
vt  0.343399 0.825601 0.000000
vt  0.343399 0.825601 0.000000
vt  0.257549 0.825601 0.000000
vt  0.257549 0.825601 0.000000
vt  0.257549 0.825601 0.000000
vt  0.257549 0.825601 0.000000
vt  0.171699 0.825601 0.000000
vt  0.171699 0.825601 0.000000
vt  0.085850 0.825601 0.000000
vt  0.085850 0.825601 0.000000
vt  0.000000 0.825601 0.000000
vt  0.000000 0.825601 0.000000
vt  0.944347 0.825601 0.000000
vt  0.944347 0.825601 0.000000
vt  0.858497 0.825601 0.000000
vt  0.858497 0.825601 0.000000
vt  0.772648 0.771938 0.000000
vt  0.772648 0.771938 0.000000
vt  0.772648 0.771938 0.000000
vt  0.772648 0.771938 0.000000
vt  0.704594 0.767189 0.000000
vt  0.638060 0.754391 0.000000
vt  0.572774 0.737346 0.000000
vt  0.506137 0.721062 0.000000
vt  0.433656 0.710330 0.000000
vt  0.350653 0.707020 0.000000
vt  0.257549 0.707232 0.000000
vt  0.257549 0.707232 0.000000
vt  0.257549 0.707232 0.000000
vt  0.257549 0.707232 0.000000
vt  0.772648 0.745766 0.000000
vt  0.772648 0.745766 0.000000
vt  0.772648 0.685656 0.000000
vt  0.772648 0.685656 0.000000
vt  0.772648 0.685656 0.000000
vt  0.772648 0.685656 0.000000
vt  0.716758 0.672769 0.000000
vt  0.665965 0.636347 0.000000
vt  0.621937 0.581072 0.000000
vt  0.583074 0.510376 0.000000
vt  0.545295 0.422324 0.000000
vt  0.496104 0.292767 0.000000
vt  0.257549 0.000000 0.000000
vt  0.257549 0.000000 0.000000
vt  0.257549 0.000000 0.000000
vt  0.257549 0.000000 0.000000
vt  0.772648 0.625731 0.000000
vt  0.772648 0.625731 0.000000
vt  0.772648 0.599414 0.000000
vt  0.772648 0.599414 0.000000
vt  0.772648 0.599414 0.000000
vt  0.772648 0.599414 0.000000
vt  0.728711 0.579476 0.000000
vt  0.692697 0.523143 0.000000
vt  0.668407 0.437502 0.000000
vt  0.657428 0.328811 0.000000
vt  0.663685 0.203897 0.000000
vt  0.698415 0.082845 0.000000
vt  0.772648 0.024767 0.000000
vt  0.772648 0.024767 0.000000
vt  0.772648 0.024767 0.000000
vt  0.772648 0.024767 0.000000
vt  0.772648 0.545896 0.000000
vt  0.772648 0.545896 0.000000
vt  0.772648 0.545896 0.000000
vt  0.772648 0.545896 0.000000
vt  0.732481 0.517231 0.000000
vt  0.732481 0.517231 0.000000
vt  0.705647 0.442389 0.000000
vt  0.705647 0.442389 0.000000
vt  0.696628 0.344367 0.000000
vt  0.696628 0.344367 0.000000
vt  0.705647 0.246345 0.000000
vt  0.705647 0.246345 0.000000
vt  0.732481 0.171502 0.000000
vt  0.732481 0.171502 0.000000
vt  0.772648 0.142837 0.000000
vt  0.772648 0.142837 0.000000
vt  0.772648 0.142837 0.000000
vt  0.772648 0.142837 0.000000
vt  0.164445 0.707020 0.000000
vt  0.081442 0.710330 0.000000
vt  0.008962 0.721062 0.000000
vt  0.972522 0.737346 0.000000
vt  0.907235 0.754391 0.000000
vt  0.840701 0.767189 0.000000
vt  0.018994 0.292767 0.000000
vt  1.000000 0.422324 0.000000
vt  0.962221 0.510376 0.000000
vt  0.923358 0.581072 0.000000
vt  0.879330 0.636347 0.000000
vt  0.828538 0.672769 0.000000
vt  0.846880 0.082845 0.000000
vt  0.881610 0.203897 0.000000
vt  0.887867 0.328811 0.000000
vt  0.876888 0.437502 0.000000
vt  0.852598 0.523143 0.000000
vt  0.816584 0.579476 0.000000
vt  0.812815 0.171502 0.000000
vt  0.812815 0.171502 0.000000
vt  0.839648 0.246345 0.000000
vt  0.839648 0.246345 0.000000
vt  0.848668 0.344367 0.000000
vt  0.848668 0.344367 0.000000
vt  0.839648 0.442389 0.000000
vt  0.839648 0.442389 0.000000
vt  0.812815 0.517231 0.000000
vt  0.812815 0.517231 0.000000
vt  0.772648 0.387689 0.000000
vt  0.772648 0.387689 0.000000
vt  0.772648 0.387689 0.000000
vt  0.780839 0.381869 0.000000
vt  0.780839 0.381869 0.000000
vt  0.786812 0.366001 0.000000
vt  0.786812 0.366001 0.000000
vt  0.788989 0.344367 0.000000
vt  0.788989 0.344367 0.000000
vt  0.786812 0.322733 0.000000
vt  0.786812 0.322733 0.000000
vt  0.780839 0.306864 0.000000
vt  0.780839 0.306864 0.000000
vt  0.772648 0.301045 0.000000
vt  0.772648 0.301045 0.000000
vt  0.772648 0.301045 0.000000
vt  0.764456 0.306864 0.000000
vt  0.764456 0.306864 0.000000
vt  0.758484 0.322733 0.000000
vt  0.758484 0.322733 0.000000
vt  0.756306 0.344367 0.000000
vt  0.756306 0.344367 0.000000
vt  0.758484 0.366001 0.000000
vt  0.758484 0.366001 0.000000
vt  0.764456 0.381869 0.000000
vt  0.764456 0.381869 0.000000

vn  0.000000 0.000000 1.000000
vn  0.000000 1.000000 0.000000
vn  -0.000000 1.000000 0.000000
vn  0.000000 0.000000 1.000000
vn  0.500000 0.866025 0.000000
vn  0.000000 0.000000 1.000000
vn  0.866025 0.500000 0.000000
vn  0.000000 0.000000 1.000000
vn  1.000000 0.000000 0.000000
vn  0.000000 0.000000 1.000000
vn  0.866025 -0.500000 0.000000
vn  0.000000 0.000000 1.000000
vn  0.500000 -0.866025 0.000000
vn  0.000000 0.000000 1.000000
vn  0.000000 -1.000000 0.000000
vn  0.000000 -1.000000 0.000000
vn  0.000000 0.000000 1.000000
vn  -0.500000 -0.866025 0.000000
vn  0.000000 0.000000 1.000000
vn  -0.866025 -0.500000 0.000000
vn  0.000000 0.000000 1.000000
vn  -1.000000 -0.000000 0.000000
vn  0.000000 0.000000 1.000000
vn  -0.866025 0.500000 0.000000
vn  0.000000 0.000000 1.000000
vn  -0.500000 0.866025 0.000000
vn  0.000000 1.000000 0.000000
vn  -0.000000 1.000000 0.000000
vn  0.000000 1.000000 0.000000
vn  -0.000000 1.000000 0.000000
vn  0.500000 0.866025 0.000000
vn  0.500000 0.866025 0.000000
vn  0.866025 0.500000 0.000000
vn  0.866025 0.500000 0.000000
vn  1.000000 0.000000 0.000000
vn  1.000000 0.000000 0.000000
vn  0.866025 -0.500000 0.000000
vn  0.866025 -0.500000 -0.000000
vn  0.500000 -0.866025 0.000000
vn  0.500000 -0.866025 -0.000000
vn  0.000000 -1.000000 0.000000
vn  0.000000 -1.000000 0.000000
vn  0.000000 -1.000000 -0.000000
vn  0.000000 -1.000000 -0.000000
vn  -0.500000 -0.866025 0.000000
vn  -0.500000 -0.866025 -0.000000
vn  -0.866025 -0.500000 0.000000
vn  -0.866025 -0.500000 -0.000000
vn  -1.000000 -0.000000 0.000000
vn  -1.000000 -0.000000 0.000000
vn  -0.866025 0.500000 0.000000
vn  -0.866025 0.500000 0.000000
vn  -0.500000 0.866025 0.000000
vn  -0.500000 0.866025 0.000000
vn  0.000000 0.923880 0.382683
vn  0.000000 0.923880 0.382683
vn  -0.000000 0.923880 0.382683
vn  -0.000000 0.923880 0.382683
vn  0.433884 0.832387 0.344786
vn  0.781831 0.576029 0.238599
vn  0.974928 0.205583 0.085155
vn  0.974928 -0.205583 -0.085155
vn  0.781831 -0.576029 -0.238599
vn  0.433884 -0.832387 -0.344786
vn  0.000000 -0.923880 -0.382683
vn  0.000000 -0.923880 -0.382683
vn  0.000000 -0.923880 -0.382683
vn  0.000000 -0.923880 -0.382683
vn  0.000000 0.866025 0.500000
vn  -0.000000 0.866025 0.500000
vn  0.000000 0.706829 0.707384
vn  0.000000 0.706829 0.707384
vn  -0.000000 0.706829 0.707384
vn  -0.000000 0.706829 0.707384
vn  0.433884 0.636831 0.637331
vn  0.781831 0.440701 0.441047
vn  0.974928 0.157284 0.157408
vn  0.974928 -0.157284 -0.157408
vn  0.781831 -0.440701 -0.441047
vn  0.433884 -0.636831 -0.637331
vn  0.000000 -0.706829 -0.707384
vn  0.000000 -0.706829 -0.707384
vn  0.000000 -0.706829 -0.707384
vn  0.000000 -0.706829 -0.707384
vn  0.000000 0.500000 0.866025
vn  -0.000000 0.500000 0.866025
vn  0.000000 0.381958 0.924180
vn  0.000000 0.381958 0.924180
vn  -0.000000 0.381958 0.924180
vn  -0.000000 0.381958 0.924180
vn  0.433884 0.344132 0.832657
vn  0.781831 0.238147 0.576217
vn  0.974928 0.084994 0.205649
vn  0.974928 -0.084994 -0.205649
vn  0.781831 -0.238147 -0.576217
vn  0.433884 -0.344132 -0.832657
vn  0.000000 -0.381958 -0.924180
vn  0.000000 -0.381958 -0.924180
vn  0.000000 -0.381958 -0.924180
vn  0.000000 -0.381958 -0.924180
vn  0.000000 -0.000000 1.000000
vn  -0.000000 -0.000000 1.000000
vn  0.000000 0.000000 1.000000
vn  -0.000000 0.000000 1.000000
vn  0.500000 -0.000000 0.866025
vn  0.500000 0.000000 0.866025
vn  0.866025 -0.000000 0.500000
vn  0.866025 0.000000 0.500000
vn  1.000000 0.000000 -0.000000
vn  1.000000 0.000000 0.000000
vn  0.866025 0.000000 -0.500000
vn  0.866025 0.000000 -0.500000
vn  0.500000 0.000000 -0.866025
vn  0.500000 0.000000 -0.866025
vn  0.000000 0.000000 -1.000000
vn  0.000000 0.000000 -1.000000
vn  0.000000 0.000000 -1.000000
vn  0.000000 0.000000 -1.000000
vn  -0.433884 -0.832387 -0.344786
vn  -0.781831 -0.576029 -0.238599
vn  -0.974928 -0.205583 -0.085155
vn  -0.974928 0.205583 0.085155
vn  -0.781831 0.576029 0.238599
vn  -0.433884 0.832387 0.344786
vn  -0.433884 -0.636831 -0.637331
vn  -0.781831 -0.440701 -0.441047
vn  -0.974928 -0.157284 -0.157408
vn  -0.974928 0.157284 0.157408
vn  -0.781831 0.440701 0.441047
vn  -0.433884 0.636831 0.637331
vn  -0.433884 -0.344132 -0.832657
vn  -0.781831 -0.238147 -0.576217
vn  -0.974928 -0.084994 -0.205649
vn  -0.974928 0.084994 0.205649
vn  -0.781831 0.238147 0.576217
vn  -0.433884 0.344132 0.832657
vn  -0.500000 0.000000 -0.866025
vn  -0.500000 0.000000 -0.866025
vn  -0.866025 0.000000 -0.500000
vn  -0.866025 0.000000 -0.500000
vn  -1.000000 0.000000 -0.000000
vn  -1.000000 0.000000 -0.000000
vn  -0.866025 -0.000000 0.500000
vn  -0.866025 0.000000 0.500000
vn  -0.500000 -0.000000 0.866025
vn  -0.500000 0.000000 0.866025
vn  0.000000 1.000000 0.000000
vn  0.000000 0.000000 1.000000
vn  -0.000000 0.000000 1.000000
vn  0.000000 1.000000 0.000000
vn  -0.500000 0.000000 0.866025
vn  0.000000 1.000000 0.000000
vn  -0.866025 0.000000 0.500000
vn  0.000000 1.000000 0.000000
vn  -1.000000 0.000000 -0.000000
vn  0.000000 1.000000 0.000000
vn  -0.866025 0.000000 -0.500000
vn  0.000000 1.000000 0.000000
vn  -0.500000 0.000000 -0.866025
vn  0.000000 1.000000 0.000000
vn  0.000000 0.000000 -1.000000
vn  0.000000 0.000000 -1.000000
vn  0.000000 1.000000 0.000000
vn  0.500000 0.000000 -0.866025
vn  0.000000 1.000000 0.000000
vn  0.866025 0.000000 -0.500000
vn  0.000000 1.000000 0.000000
vn  1.000000 0.000000 0.000000
vn  0.000000 1.000000 0.000000
vn  0.866025 0.000000 0.500000
vn  0.000000 1.000000 0.000000
vn  0.500000 0.000000 0.866025


g 0
g 1
usemtl DEFAULT_MTL
f 12/12/12  4/4/4  1/1/1
f 27/27/27  2/2/2  5/5/5
f 14/14/14  12/12/12  1/1/1
f 25/25/25  14/14/14  1/1/1
f 53/53/53  26/26/26  3/3/3
f 53/53/53  3/3/3  28/28/28
f 10/10/10  6/6/6  4/4/4
f 31/31/31  5/5/5  7/7/7
f 12/12/12  10/10/10  4/4/4
f 31/31/31  27/27/27  5/5/5
f 10/10/10  8/8/8  6/6/6
f 33/33/33  7/7/7  9/9/9
f 33/33/33  31/31/31  7/7/7
f 35/35/35  9/9/9  11/11/11
f 35/35/35  33/33/33  9/9/9
f 37/37/37  11/11/11  13/13/13
f 37/37/37  35/35/35  11/11/11
f 39/39/39  13/13/13  15/15/15
f 39/39/39  37/37/37  13/13/13
f 25/25/25  17/17/17  14/14/14
f 42/42/42  16/16/16  18/18/18
f 41/41/41  39/39/39  15/15/15
f 23/23/23  19/19/19  17/17/17
f 45/45/45  18/18/18  20/20/20
f 25/25/25  23/23/23  17/17/17
f 45/45/45  42/42/42  18/18/18
f 23/23/23  21/21/21  19/19/19
f 47/47/47  20/20/20  22/22/22
f 47/47/47  45/45/45  20/20/20
f 49/49/49  22/22/22  24/24/24
f 49/49/49  47/47/47  22/22/22
f 51/51/51  24/24/24  26/26/26
f 51/51/51  49/49/49  24/24/24
f 53/53/53  51/51/51  26/26/26
f 55/55/55  29/29/29  32/32/32
f 124/124/124  54/54/54  30/30/30
f 124/124/124  30/30/30  57/57/57
f 60/60/60  32/32/32  34/34/34
f 59/59/59  55/55/55  32/32/32
f 60/60/60  59/59/59  32/32/32
f 61/61/61  34/34/34  36/36/36
f 61/61/61  60/60/60  34/34/34
f 62/62/62  36/36/36  38/38/38
f 62/62/62  61/61/61  36/36/36
f 63/63/63  38/38/38  40/40/40
f 63/63/63  62/62/62  38/38/38
f 64/64/64  40/40/40  43/43/43
f 64/64/64  63/63/63  40/40/40
f 67/67/67  44/44/44  46/46/46
f 65/65/65  64/64/64  43/43/43
f 120/120/120  46/46/46  48/48/48
f 119/119/119  67/67/67  46/46/46
f 120/120/120  119/119/119  46/46/46
f 121/121/121  48/48/48  50/50/50
f 121/121/121  120/120/120  48/48/48
f 122/122/122  50/50/50  52/52/52
f 122/122/122  121/121/121  50/50/50
f 123/123/123  52/52/52  54/54/54
f 123/123/123  122/122/122  52/52/52
f 124/124/124  123/123/123  54/54/54
f 69/69/69  55/55/55  59/59/59
f 130/130/130  57/57/57  70/70/70
f 130/130/130  124/124/124  57/57/57
f 75/75/75  59/59/59  60/60/60
f 71/71/71  69/69/69  59/59/59
f 75/75/75  71/71/71  59/59/59
f 76/76/76  60/60/60  61/61/61
f 76/76/76  75/75/75  60/60/60
f 77/77/77  61/61/61  62/62/62
f 77/77/77  76/76/76  61/61/61
f 78/78/78  62/62/62  63/63/63
f 78/78/78  77/77/77  62/62/62
f 79/79/79  63/63/63  64/64/64
f 79/79/79  78/78/78  63/63/63
f 80/80/80  64/64/64  65/65/65
f 80/80/80  79/79/79  64/64/64
f 81/81/81  80/80/80  65/65/65
f 119/119/119  83/83/83  67/67/67
f 130/130/130  70/70/70  73/73/73
f 85/85/85  71/71/71  75/75/75
f 136/136/136  73/73/73  86/86/86
f 136/136/136  130/130/130  73/73/73
f 91/91/91  75/75/75  76/76/76
f 87/87/87  85/85/85  75/75/75
f 91/91/91  87/87/87  75/75/75
f 92/92/92  76/76/76  77/77/77
f 92/92/92  91/91/91  76/76/76
f 93/93/93  77/77/77  78/78/78
f 93/93/93  92/92/92  77/77/77
f 94/94/94  78/78/78  79/79/79
f 94/94/94  93/93/93  78/78/78
f 95/95/95  79/79/79  80/80/80
f 95/95/95  94/94/94  79/79/79
f 96/96/96  80/80/80  81/81/81
f 96/96/96  95/95/95  80/80/80
f 97/97/97  96/96/96  81/81/81
f 125/125/125  99/99/99  83/83/83
f 125/125/125  83/83/83  119/119/119
f 136/136/136  86/86/86  89/89/89
f 101/101/101  87/87/87  91/91/91
f 145/145/145  89/89/89  102/102/102
f 145/145/145  136/136/136  89/89/89
f 105/105/105  91/91/91  92/92/92
f 105/105/105  101/101/101  91/91/91
f 107/107/107  92/92/92  93/93/93
f 107/107/107  105/105/105  92/92/92
f 109/109/109  93/93/93  94/94/94
f 109/109/109  107/107/107  93/93/93
f 111/111/111  94/94/94  95/95/95
f 111/111/111  109/109/109  94/94/94
f 113/113/113  95/95/95  96/96/96
f 113/113/113  111/111/111  95/95/95
f 113/113/113  96/96/96  97/97/97
f 115/115/115  113/113/113  97/97/97
f 131/131/131  116/116/116  99/99/99
f 131/131/131  99/99/99  125/125/125
f 148/148/148  103/103/103  106/106/106
f 151/151/151  146/146/146  104/104/104
f 151/151/151  104/104/104  149/149/149
f 172/172/172  106/106/106  108/108/108
f 172/172/172  148/148/148  106/106/106
f 170/170/170  108/108/108  110/110/110
f 172/172/172  108/108/108  170/170/170
f 168/168/168  110/110/110  112/112/112
f 170/170/170  110/110/110  168/168/168
f 166/166/166  112/112/112  114/114/114
f 168/168/168  112/112/112  166/166/166
f 164/164/164  114/114/114  117/117/117
f 166/166/166  114/114/114  164/164/164
f 137/137/137  116/116/116  131/131/131
f 162/162/162  118/118/118  138/138/138
f 164/164/164  117/117/117  161/161/161
f 125/125/125  119/119/119  120/120/120
f 126/126/126  120/120/120  121/121/121
f 126/126/126  125/125/125  120/120/120
f 127/127/127  121/121/121  122/122/122
f 127/127/127  126/126/126  121/121/121
f 128/128/128  122/122/122  123/123/123
f 128/128/128  127/127/127  122/122/122
f 129/129/129  123/123/123  124/124/124
f 129/129/129  128/128/128  123/123/123
f 130/130/130  129/129/129  124/124/124
f 131/131/131  125/125/125  126/126/126
f 132/132/132  126/126/126  127/127/127
f 132/132/132  131/131/131  126/126/126
f 133/133/133  127/127/127  128/128/128
f 133/133/133  132/132/132  127/127/127
f 134/134/134  128/128/128  129/129/129
f 134/134/134  133/133/133  128/128/128
f 135/135/135  129/129/129  130/130/130
f 135/135/135  134/134/134  129/129/129
f 136/136/136  135/135/135  130/130/130
f 137/137/137  131/131/131  132/132/132
f 139/139/139  132/132/132  133/133/133
f 139/139/139  137/137/137  132/132/132
f 141/141/141  133/133/133  134/134/134
f 141/141/141  139/139/139  133/133/133
f 143/143/143  134/134/134  135/135/135
f 143/143/143  141/141/141  134/134/134
f 145/145/145  135/135/135  136/136/136
f 145/145/145  143/143/143  135/135/135
f 159/159/159  138/138/138  140/140/140
f 162/162/162  138/138/138  159/159/159
f 157/157/157  140/140/140  142/142/142
f 159/159/159  140/140/140  157/157/157
f 155/155/155  142/142/142  144/144/144
f 157/157/157  142/142/142  155/155/155
f 153/153/153  144/144/144  146/146/146
f 155/155/155  144/144/144  153/153/153
f 153/153/153  146/146/146  151/151/151
f 158/158/158  150/150/150  147/147/147
f 160/160/160  158/158/158  147/147/147
f 171/171/171  160/160/160  147/147/147
f 156/156/156  152/152/152  150/150/150
f 158/158/158  156/156/156  150/150/150
f 156/156/156  154/154/154  152/152/152
f 171/171/171  163/163/163  160/160/160
f 169/169/169  165/165/165  163/163/163
f 171/171/171  169/169/169  163/163/163
f 169/169/169  167/167/167  165/165/165
